<svg width="269" height="47" viewBox="0 0 269 47" fill="none" xmlns="http://www.w3.org/2000/svg">
<mask id="path-1-outside-1_5:44" maskUnits="userSpaceOnUse" x="0" y="0" width="269" height="47" fill="black">
<rect fill="white" width="269" height="47"/>
<path fill-rule="evenodd" clip-rule="evenodd" d="M47.2595 1H48.0305C49.3123 1 50.3435 2.25391 50.3435 3.8125V43.1875C50.3435 44.7461 49.3123 46 48.0305 46H47.2595V43.6562C47.2595 42.8828 46.7391 42.25 46.103 42.25H42.2481C41.612 42.25 41.0916 42.8828 41.0916 43.6562V46H10.2519V43.6562C10.2519 42.8828 9.73149 42.25 9.09542 42.25H5.24046C4.60439 42.25 4.08397 42.8828 4.08397 43.6562V46H3.31298C2.0312 46 1 44.7461 1 43.1875V3.8125C1 2.25391 2.0312 1 3.31298 1H4.08397V3.34375C4.08397 4.11719 4.60439 4.75 5.24046 4.75H9.09542C9.73149 4.75 10.2519 4.11719 10.2519 3.34375V1H41.0916V3.34375C41.0916 4.11719 41.612 4.75 42.2481 4.75H46.103C46.7391 4.75 47.2595 4.11719 47.2595 3.34375V1ZM9.09542 38.5C9.73149 38.5 10.2519 37.8672 10.2519 37.0937V32.4063C10.2519 31.6328 9.73149 31 9.09542 31H5.24046C4.60439 31 4.08397 31.6328 4.08397 32.4063V37.0937C4.08397 37.8672 4.60439 38.5 5.24046 38.5H9.09542ZM9.09542 27.25C9.73149 27.25 10.2519 26.6172 10.2519 25.8437V21.1562C10.2519 20.3828 9.73149 19.75 9.09542 19.75H5.24046C4.60439 19.75 4.08397 20.3828 4.08397 21.1562V25.8437C4.08397 26.6172 4.60439 27.25 5.24046 27.25H9.09542ZM9.09542 16C9.73149 16 10.2519 15.3672 10.2519 14.5938V9.9063C10.2519 9.1328 9.73149 8.5 9.09542 8.5H5.24046C4.60439 8.5 4.08397 9.1328 4.08397 9.9063V14.5938C4.08397 15.3672 4.60439 16 5.24046 16H9.09542ZM35.3091 40.375C35.9452 40.375 36.4656 39.7422 36.4656 38.9687V27.7187C36.4656 26.9453 35.9452 26.3125 35.3091 26.3125H16.0343C15.3983 26.3125 14.8779 26.9453 14.8779 27.7187V38.9687C14.8779 39.7422 15.3983 40.375 16.0343 40.375H35.3091ZM35.3091 20.6875C35.9452 20.6875 36.4656 20.0547 36.4656 19.2812V8.0312C36.4656 7.25781 35.9452 6.625 35.3091 6.625H16.0343C15.3983 6.625 14.8779 7.25781 14.8779 8.0312V19.2812C14.8779 20.0547 15.3983 20.6875 16.0343 20.6875H35.3091ZM46.103 38.5C46.7391 38.5 47.2595 37.8672 47.2595 37.0937V32.4063C47.2595 31.6328 46.7391 31 46.103 31H42.2481C41.612 31 41.0916 31.6328 41.0916 32.4063V37.0937C41.0916 37.8672 41.612 38.5 42.2481 38.5H46.103ZM46.103 27.25C46.7391 27.25 47.2595 26.6172 47.2595 25.8437V21.1562C47.2595 20.3828 46.7391 19.75 46.103 19.75H42.2481C41.612 19.75 41.0916 20.3828 41.0916 21.1562V25.8437C41.0916 26.6172 41.612 27.25 42.2481 27.25H46.103ZM46.103 16C46.7391 16 47.2595 15.3672 47.2595 14.5938V9.9063C47.2595 9.1328 46.7391 8.5 46.103 8.5H42.2481C41.612 8.5 41.0916 9.1328 41.0916 9.9063V14.5938C41.0916 15.3672 41.612 16 42.2481 16H46.103ZM69.844 36L72.868 29.268H86.908L89.932 36H92.74L81.22 10.8H78.592L67.072 36H69.844ZM79.888 13.572L85.936 27.108H73.84L79.888 13.572ZM113.081 36V17.064H110.525V27C110.525 29.16 109.949 30.852 108.797 32.076C107.645 33.276 106.073 33.876 104.081 33.876C102.257 33.876 100.853 33.36 99.8691 32.328C98.8851 31.296 98.3931 29.784 98.3931 27.792V17.064H95.8371V28.044C95.8371 30.708 96.5451 32.736 97.9611 34.128C99.4011 35.496 101.357 36.18 103.829 36.18C105.341 36.18 106.685 35.868 107.861 35.244C109.037 34.596 109.961 33.696 110.633 32.544V36H113.081ZM125.352 17.892C124.176 18.54 123.288 19.5 122.688 20.772V17.064H120.24V36H122.796V26.352C122.796 24.144 123.36 22.428 124.488 21.204C125.616 19.98 127.176 19.368 129.168 19.368L129.78 19.404V16.92C128.028 16.92 126.552 17.244 125.352 17.892ZM146.685 18.792C145.365 17.544 143.469 16.92 140.997 16.92C139.509 16.92 138.093 17.148 136.749 17.604C135.405 18.036 134.253 18.66 133.293 19.476L134.445 21.384C135.237 20.688 136.185 20.148 137.289 19.764C138.393 19.356 139.545 19.152 140.745 19.152C142.497 19.152 143.829 19.584 144.741 20.448C145.653 21.288 146.109 22.524 146.109 24.156V25.308H140.097C137.553 25.308 135.693 25.8 134.517 26.784C133.365 27.768 132.789 29.064 132.789 30.672C132.789 32.328 133.413 33.66 134.661 34.668C135.909 35.676 137.589 36.18 139.701 36.18C141.237 36.18 142.557 35.904 143.661 35.352C144.789 34.8 145.641 34.032 146.217 33.048V36H148.665V24.264C148.665 21.84 148.005 20.016 146.685 18.792ZM143.805 33.192C142.773 33.84 141.537 34.164 140.097 34.164C138.585 34.164 137.409 33.852 136.569 33.228C135.729 32.58 135.309 31.704 135.309 30.6C135.309 28.344 136.929 27.216 140.169 27.216H146.109V30.312C145.605 31.56 144.837 32.52 143.805 33.192ZM189.869 36L194.909 10.8H192.569L178.169 29.52L170.897 10.8H168.737L163.697 36H166.253L170.285 15.696L177.017 32.796H178.277L191.309 16.02L187.313 36H189.869ZM201.428 35.208C202.724 35.856 204.236 36.18 205.964 36.18C208.052 36.18 209.924 35.7 211.58 34.74C213.26 33.756 214.568 32.412 215.504 30.708C216.44 28.98 216.908 27.048 216.908 24.912C216.908 22.464 216.128 20.52 214.568 19.08C213.032 17.64 210.944 16.92 208.304 16.92C206.216 16.92 204.332 17.412 202.652 18.396C200.996 19.356 199.7 20.688 198.764 22.392C197.828 24.096 197.36 26.016 197.36 28.152C197.36 29.76 197.708 31.176 198.404 32.4C199.124 33.6 200.132 34.536 201.428 35.208ZM210.356 32.796C209.108 33.54 207.704 33.912 206.144 33.912C204.176 33.912 202.64 33.396 201.536 32.364C200.456 31.332 199.916 29.892 199.916 28.044C199.916 26.364 200.264 24.852 200.96 23.508C201.68 22.14 202.664 21.072 203.912 20.304C205.16 19.536 206.564 19.152 208.124 19.152C210.092 19.152 211.616 19.68 212.696 20.736C213.8 21.768 214.352 23.208 214.352 25.056C214.352 26.736 213.992 28.26 213.272 29.628C212.576 30.972 211.604 32.028 210.356 32.796ZM227.107 36L239.275 17.064H236.611L226.279 33.228L222.355 17.064H219.799L224.479 36H227.107ZM245.394 17.064H242.838L239.094 36H241.65L245.394 17.064ZM243.954 12.42C244.29 12.756 244.71 12.924 245.214 12.924C245.79 12.924 246.27 12.732 246.654 12.348C247.038 11.964 247.23 11.484 247.23 10.908C247.23 10.476 247.062 10.104 246.726 9.792C246.39 9.456 245.97 9.288 245.466 9.288C244.89 9.288 244.41 9.48 244.026 9.864C243.666 10.224 243.486 10.68 243.486 11.232C243.486 11.688 243.642 12.084 243.954 12.42ZM251.102 28.008C251.102 27.672 251.114 27.42 251.138 27.252H267.05C267.218 26.412 267.302 25.644 267.302 24.948C267.302 22.452 266.558 20.496 265.07 19.08C263.582 17.64 261.578 16.92 259.058 16.92C257.066 16.92 255.266 17.412 253.658 18.396C252.074 19.356 250.826 20.688 249.914 22.392C249.026 24.096 248.582 26.004 248.582 28.116C248.582 30.612 249.362 32.58 250.922 34.02C252.506 35.46 254.666 36.18 257.402 36.18C258.89 36.18 260.294 35.94 261.614 35.46C262.958 34.956 264.074 34.26 264.962 33.372L263.81 31.536C263.114 32.28 262.214 32.868 261.11 33.3C260.03 33.708 258.866 33.912 257.618 33.912C255.458 33.912 253.826 33.408 252.722 32.4C251.642 31.392 251.102 29.928 251.102 28.008ZM254.126 20.772C255.47 19.644 257.09 19.08 258.986 19.08C260.786 19.08 262.226 19.572 263.306 20.556C264.386 21.516 264.926 22.884 264.926 24.66C264.926 24.948 264.914 25.176 264.89 25.344H251.39C251.87 23.424 252.782 21.9 254.126 20.772Z"/>
</mask>
<path fill-rule="evenodd" clip-rule="evenodd" d="M47.2595 1H48.0305C49.3123 1 50.3435 2.25391 50.3435 3.8125V43.1875C50.3435 44.7461 49.3123 46 48.0305 46H47.2595V43.6562C47.2595 42.8828 46.7391 42.25 46.103 42.25H42.2481C41.612 42.25 41.0916 42.8828 41.0916 43.6562V46H10.2519V43.6562C10.2519 42.8828 9.73149 42.25 9.09542 42.25H5.24046C4.60439 42.25 4.08397 42.8828 4.08397 43.6562V46H3.31298C2.0312 46 1 44.7461 1 43.1875V3.8125C1 2.25391 2.0312 1 3.31298 1H4.08397V3.34375C4.08397 4.11719 4.60439 4.75 5.24046 4.75H9.09542C9.73149 4.75 10.2519 4.11719 10.2519 3.34375V1H41.0916V3.34375C41.0916 4.11719 41.612 4.75 42.2481 4.75H46.103C46.7391 4.75 47.2595 4.11719 47.2595 3.34375V1ZM9.09542 38.5C9.73149 38.5 10.2519 37.8672 10.2519 37.0937V32.4063C10.2519 31.6328 9.73149 31 9.09542 31H5.24046C4.60439 31 4.08397 31.6328 4.08397 32.4063V37.0937C4.08397 37.8672 4.60439 38.5 5.24046 38.5H9.09542ZM9.09542 27.25C9.73149 27.25 10.2519 26.6172 10.2519 25.8437V21.1562C10.2519 20.3828 9.73149 19.75 9.09542 19.75H5.24046C4.60439 19.75 4.08397 20.3828 4.08397 21.1562V25.8437C4.08397 26.6172 4.60439 27.25 5.24046 27.25H9.09542ZM9.09542 16C9.73149 16 10.2519 15.3672 10.2519 14.5938V9.9063C10.2519 9.1328 9.73149 8.5 9.09542 8.5H5.24046C4.60439 8.5 4.08397 9.1328 4.08397 9.9063V14.5938C4.08397 15.3672 4.60439 16 5.24046 16H9.09542ZM35.3091 40.375C35.9452 40.375 36.4656 39.7422 36.4656 38.9687V27.7187C36.4656 26.9453 35.9452 26.3125 35.3091 26.3125H16.0343C15.3983 26.3125 14.8779 26.9453 14.8779 27.7187V38.9687C14.8779 39.7422 15.3983 40.375 16.0343 40.375H35.3091ZM35.3091 20.6875C35.9452 20.6875 36.4656 20.0547 36.4656 19.2812V8.0312C36.4656 7.25781 35.9452 6.625 35.3091 6.625H16.0343C15.3983 6.625 14.8779 7.25781 14.8779 8.0312V19.2812C14.8779 20.0547 15.3983 20.6875 16.0343 20.6875H35.3091ZM46.103 38.5C46.7391 38.5 47.2595 37.8672 47.2595 37.0937V32.4063C47.2595 31.6328 46.7391 31 46.103 31H42.2481C41.612 31 41.0916 31.6328 41.0916 32.4063V37.0937C41.0916 37.8672 41.612 38.5 42.2481 38.5H46.103ZM46.103 27.25C46.7391 27.25 47.2595 26.6172 47.2595 25.8437V21.1562C47.2595 20.3828 46.7391 19.75 46.103 19.75H42.2481C41.612 19.75 41.0916 20.3828 41.0916 21.1562V25.8437C41.0916 26.6172 41.612 27.25 42.2481 27.25H46.103ZM46.103 16C46.7391 16 47.2595 15.3672 47.2595 14.5938V9.9063C47.2595 9.1328 46.7391 8.5 46.103 8.5H42.2481C41.612 8.5 41.0916 9.1328 41.0916 9.9063V14.5938C41.0916 15.3672 41.612 16 42.2481 16H46.103ZM69.844 36L72.868 29.268H86.908L89.932 36H92.74L81.22 10.8H78.592L67.072 36H69.844ZM79.888 13.572L85.936 27.108H73.84L79.888 13.572ZM113.081 36V17.064H110.525V27C110.525 29.16 109.949 30.852 108.797 32.076C107.645 33.276 106.073 33.876 104.081 33.876C102.257 33.876 100.853 33.36 99.8691 32.328C98.8851 31.296 98.3931 29.784 98.3931 27.792V17.064H95.8371V28.044C95.8371 30.708 96.5451 32.736 97.9611 34.128C99.4011 35.496 101.357 36.18 103.829 36.18C105.341 36.18 106.685 35.868 107.861 35.244C109.037 34.596 109.961 33.696 110.633 32.544V36H113.081ZM125.352 17.892C124.176 18.54 123.288 19.5 122.688 20.772V17.064H120.24V36H122.796V26.352C122.796 24.144 123.36 22.428 124.488 21.204C125.616 19.98 127.176 19.368 129.168 19.368L129.78 19.404V16.92C128.028 16.92 126.552 17.244 125.352 17.892ZM146.685 18.792C145.365 17.544 143.469 16.92 140.997 16.92C139.509 16.92 138.093 17.148 136.749 17.604C135.405 18.036 134.253 18.66 133.293 19.476L134.445 21.384C135.237 20.688 136.185 20.148 137.289 19.764C138.393 19.356 139.545 19.152 140.745 19.152C142.497 19.152 143.829 19.584 144.741 20.448C145.653 21.288 146.109 22.524 146.109 24.156V25.308H140.097C137.553 25.308 135.693 25.8 134.517 26.784C133.365 27.768 132.789 29.064 132.789 30.672C132.789 32.328 133.413 33.66 134.661 34.668C135.909 35.676 137.589 36.18 139.701 36.18C141.237 36.18 142.557 35.904 143.661 35.352C144.789 34.8 145.641 34.032 146.217 33.048V36H148.665V24.264C148.665 21.84 148.005 20.016 146.685 18.792ZM143.805 33.192C142.773 33.84 141.537 34.164 140.097 34.164C138.585 34.164 137.409 33.852 136.569 33.228C135.729 32.58 135.309 31.704 135.309 30.6C135.309 28.344 136.929 27.216 140.169 27.216H146.109V30.312C145.605 31.56 144.837 32.52 143.805 33.192ZM189.869 36L194.909 10.8H192.569L178.169 29.52L170.897 10.8H168.737L163.697 36H166.253L170.285 15.696L177.017 32.796H178.277L191.309 16.02L187.313 36H189.869ZM201.428 35.208C202.724 35.856 204.236 36.18 205.964 36.18C208.052 36.18 209.924 35.7 211.58 34.74C213.26 33.756 214.568 32.412 215.504 30.708C216.44 28.98 216.908 27.048 216.908 24.912C216.908 22.464 216.128 20.52 214.568 19.08C213.032 17.64 210.944 16.92 208.304 16.92C206.216 16.92 204.332 17.412 202.652 18.396C200.996 19.356 199.7 20.688 198.764 22.392C197.828 24.096 197.36 26.016 197.36 28.152C197.36 29.76 197.708 31.176 198.404 32.4C199.124 33.6 200.132 34.536 201.428 35.208ZM210.356 32.796C209.108 33.54 207.704 33.912 206.144 33.912C204.176 33.912 202.64 33.396 201.536 32.364C200.456 31.332 199.916 29.892 199.916 28.044C199.916 26.364 200.264 24.852 200.96 23.508C201.68 22.14 202.664 21.072 203.912 20.304C205.16 19.536 206.564 19.152 208.124 19.152C210.092 19.152 211.616 19.68 212.696 20.736C213.8 21.768 214.352 23.208 214.352 25.056C214.352 26.736 213.992 28.26 213.272 29.628C212.576 30.972 211.604 32.028 210.356 32.796ZM227.107 36L239.275 17.064H236.611L226.279 33.228L222.355 17.064H219.799L224.479 36H227.107ZM245.394 17.064H242.838L239.094 36H241.65L245.394 17.064ZM243.954 12.42C244.29 12.756 244.71 12.924 245.214 12.924C245.79 12.924 246.27 12.732 246.654 12.348C247.038 11.964 247.23 11.484 247.23 10.908C247.23 10.476 247.062 10.104 246.726 9.792C246.39 9.456 245.97 9.288 245.466 9.288C244.89 9.288 244.41 9.48 244.026 9.864C243.666 10.224 243.486 10.68 243.486 11.232C243.486 11.688 243.642 12.084 243.954 12.42ZM251.102 28.008C251.102 27.672 251.114 27.42 251.138 27.252H267.05C267.218 26.412 267.302 25.644 267.302 24.948C267.302 22.452 266.558 20.496 265.07 19.08C263.582 17.64 261.578 16.92 259.058 16.92C257.066 16.92 255.266 17.412 253.658 18.396C252.074 19.356 250.826 20.688 249.914 22.392C249.026 24.096 248.582 26.004 248.582 28.116C248.582 30.612 249.362 32.58 250.922 34.02C252.506 35.46 254.666 36.18 257.402 36.18C258.89 36.18 260.294 35.94 261.614 35.46C262.958 34.956 264.074 34.26 264.962 33.372L263.81 31.536C263.114 32.28 262.214 32.868 261.11 33.3C260.03 33.708 258.866 33.912 257.618 33.912C255.458 33.912 253.826 33.408 252.722 32.4C251.642 31.392 251.102 29.928 251.102 28.008ZM254.126 20.772C255.47 19.644 257.09 19.08 258.986 19.08C260.786 19.08 262.226 19.572 263.306 20.556C264.386 21.516 264.926 22.884 264.926 24.66C264.926 24.948 264.914 25.176 264.89 25.344H251.39C251.87 23.424 252.782 21.9 254.126 20.772Z" fill="white"/>
<path d="M47.2595 1V0H46.2595V1H47.2595ZM47.2595 46H46.2595V47H47.2595V46ZM41.0916 46V47H42.0916V46H41.0916ZM10.2519 46H9.2519V47H10.2519V46ZM4.08397 46V47H5.08397V46H4.08397ZM4.08397 1H5.08397V0H4.08397V1ZM10.2519 1V0H9.2519V1H10.2519ZM41.0916 1H42.0916V0H41.0916V1ZM72.868 29.268V28.268H72.2209L71.9558 28.8582L72.868 29.268ZM69.844 36V37H70.4911L70.7562 36.4098L69.844 36ZM86.908 29.268L87.8202 28.8582L87.5551 28.268H86.908V29.268ZM89.932 36L89.0198 36.4098L89.2849 37H89.932V36ZM92.74 36V37H94.2967L93.6495 35.5842L92.74 36ZM81.22 10.8L82.1295 10.3842L81.8624 9.8H81.22V10.8ZM78.592 10.8V9.8H77.9496L77.6825 10.3842L78.592 10.8ZM67.072 36L66.1625 35.5842L65.5153 37H67.072V36ZM85.936 27.108V28.108H87.4781L86.849 26.7001L85.936 27.108ZM79.888 13.572L80.801 13.1641L79.888 11.1207L78.975 13.1641L79.888 13.572ZM73.84 27.108L72.927 26.7001L72.2979 28.108H73.84V27.108ZM113.081 17.064H114.081V16.064H113.081V17.064ZM113.081 36V37H114.081V36H113.081ZM110.525 17.064V16.064H109.525V17.064H110.525ZM108.797 32.076L109.519 32.7686L109.525 32.7614L108.797 32.076ZM99.8691 32.328L100.593 31.6379L100.593 31.6379L99.8691 32.328ZM98.3931 17.064H99.3931V16.064H98.3931V17.064ZM95.8371 17.064V16.064H94.8371V17.064H95.8371ZM97.9611 34.128L97.2601 34.8411L97.2662 34.8471L97.2724 34.853L97.9611 34.128ZM107.861 35.244L108.33 36.1273L108.337 36.1236L108.344 36.1198L107.861 35.244ZM110.633 32.544H111.633V28.8451L109.769 32.0401L110.633 32.544ZM110.633 36H109.633V37H110.633V36ZM122.688 20.772H121.688L123.592 21.1986L122.688 20.772ZM125.352 17.892L124.877 17.0121L124.869 17.0162L125.352 17.892ZM122.688 17.064H123.688V16.064H122.688V17.064ZM120.24 17.064V16.064H119.24V17.064H120.24ZM120.24 36H119.24V37H120.24V36ZM122.796 36V37H123.796V36H122.796ZM124.488 21.204L123.752 20.5263L123.752 20.5263L124.488 21.204ZM129.168 19.368L129.227 18.3697L129.197 18.368H129.168V19.368ZM129.78 19.404L129.721 20.4023L130.78 20.4646V19.404H129.78ZM129.78 16.92H130.78V15.92H129.78V16.92ZM146.685 18.792L145.998 19.5187L146.005 19.5253L146.685 18.792ZM136.749 17.604L137.055 18.556L137.062 18.5536L137.07 18.551L136.749 17.604ZM133.293 19.476L132.645 18.7141L131.997 19.2648L132.437 19.9929L133.293 19.476ZM134.445 21.384L133.589 21.9009L134.207 22.9245L135.105 22.1352L134.445 21.384ZM137.289 19.764L137.617 20.7085L137.626 20.7053L137.635 20.702L137.289 19.764ZM144.741 20.448L144.053 21.174L144.063 21.1835L144.741 20.448ZM146.109 25.308V26.308H147.109V25.308H146.109ZM134.517 26.784L133.875 26.017L133.867 26.0236L134.517 26.784ZM143.661 35.352L143.221 34.4538L143.213 34.4576L143.661 35.352ZM146.217 33.048H147.217V29.3602L145.354 32.5428L146.217 33.048ZM146.217 36H145.217V37H146.217V36ZM148.665 36V37H149.665V36H148.665ZM143.805 33.192L144.336 34.0389L144.343 34.0345L144.35 34.03L143.805 33.192ZM136.569 33.228L135.958 34.0198L135.965 34.0253L135.972 34.0307L136.569 33.228ZM146.109 27.216H147.109V26.216H146.109V27.216ZM146.109 30.312L147.036 30.6865L147.109 30.5063V30.312H146.109ZM194.909 10.8L195.889 10.9961L196.129 9.8H194.909V10.8ZM189.869 36V37H190.689L190.849 36.1961L189.869 36ZM192.569 10.8V9.8H192.076L191.776 10.1903L192.569 10.8ZM178.169 29.52L177.237 29.8821L177.879 31.5365L178.961 30.1297L178.169 29.52ZM170.897 10.8L171.829 10.4379L171.581 9.8H170.897V10.8ZM168.737 10.8V9.8H167.917L167.756 10.6039L168.737 10.8ZM163.697 36L162.716 35.8039L162.477 37H163.697V36ZM166.253 36V37H167.074L167.234 36.1948L166.253 36ZM170.285 15.696L171.215 15.3297L169.968 12.16L169.304 15.5012L170.285 15.696ZM177.017 32.796L176.086 33.1623L176.336 33.796H177.017V32.796ZM178.277 32.796V33.796H178.766L179.067 33.4095L178.277 32.796ZM191.309 16.02L192.289 16.2161L190.519 15.4065L191.309 16.02ZM187.313 36L186.332 35.8039L186.093 37H187.313V36ZM201.428 35.208L200.967 36.0958L200.974 36.0991L200.98 36.1024L201.428 35.208ZM211.58 34.74L212.081 35.6051L212.085 35.6029L211.58 34.74ZM215.504 30.708L216.38 31.1895L216.383 31.1843L215.504 30.708ZM214.568 19.08L213.884 19.8096L213.889 19.8148L214.568 19.08ZM202.652 18.396L203.153 19.2611L203.157 19.2589L202.652 18.396ZM198.764 22.392L197.887 21.9106L197.887 21.9106L198.764 22.392ZM198.404 32.4L197.534 32.8943L197.54 32.9045L197.546 32.9145L198.404 32.4ZM210.356 32.796L210.868 33.655L210.88 33.6477L210.356 32.796ZM201.536 32.364L200.845 33.087L200.853 33.0945L201.536 32.364ZM200.96 23.508L200.075 23.0422L200.072 23.0481L200.96 23.508ZM212.696 20.736L211.997 21.451L212.005 21.4589L212.013 21.4665L212.696 20.736ZM213.272 29.628L212.387 29.1622L212.384 29.1681L213.272 29.628ZM239.275 17.064L240.116 17.6046L241.106 16.064H239.275V17.064ZM227.107 36V37H227.653L227.948 36.5406L227.107 36ZM236.611 17.064V16.064H236.063L235.768 16.5254L236.611 17.064ZM226.279 33.228L225.307 33.4639L225.86 35.7404L227.121 33.7666L226.279 33.228ZM222.355 17.064L223.326 16.8281L223.141 16.064H222.355V17.064ZM219.799 17.064V16.064H218.521L218.828 17.3039L219.799 17.064ZM224.479 36L223.508 36.2399L223.696 37H224.479V36ZM242.838 17.064V16.064H242.017L241.857 16.87L242.838 17.064ZM245.394 17.064L246.375 17.258L246.611 16.064H245.394V17.064ZM239.094 36L238.113 35.806L237.877 37H239.094V36ZM241.65 36V37H242.472L242.631 36.194L241.65 36ZM243.954 12.42L243.222 13.1004L243.234 13.114L243.247 13.1271L243.954 12.42ZM246.654 12.348L247.361 13.0551L247.361 13.0551L246.654 12.348ZM246.726 9.792L246.019 10.4991L246.032 10.5122L246.046 10.5248L246.726 9.792ZM244.026 9.864L243.319 9.15689L243.319 9.15691L244.026 9.864ZM251.138 27.252V26.252H250.271L250.148 27.1107L251.138 27.252ZM267.05 27.252V28.252H267.87L268.031 27.4481L267.05 27.252ZM265.07 19.08L264.375 19.7986L264.381 19.8044L265.07 19.08ZM253.658 18.396L254.177 19.2512L254.18 19.249L253.658 18.396ZM249.914 22.392L249.033 21.9201L249.027 21.9299L249.914 22.392ZM250.922 34.02L250.244 34.7548L250.25 34.7599L250.922 34.02ZM261.614 35.46L261.956 36.3998L261.965 36.3963L261.614 35.46ZM264.962 33.372L265.669 34.0791L266.233 33.5156L265.809 32.8405L264.962 33.372ZM263.81 31.536L264.657 31.0045L263.967 29.9045L263.08 30.8529L263.81 31.536ZM261.11 33.3L261.464 34.2355L261.475 34.2312L261.11 33.3ZM252.722 32.4L252.04 33.1311L252.048 33.1385L252.722 32.4ZM263.306 20.556L262.633 21.2952L262.642 21.3034L263.306 20.556ZM264.89 25.344V26.344H265.758L265.88 25.4853L264.89 25.344ZM251.39 25.344L250.42 25.1015L250.11 26.344H251.39V25.344ZM48.0305 0H47.2595V2H48.0305V0ZM51.3435 3.8125C51.3435 1.89342 50.0386 0 48.0305 0V2C48.586 2 49.3435 2.6144 49.3435 3.8125H51.3435ZM51.3435 43.1875V3.8125H49.3435V43.1875H51.3435ZM48.0305 47C50.0386 47 51.3435 45.1066 51.3435 43.1875H49.3435C49.3435 44.3856 48.586 45 48.0305 45V47ZM47.2595 47H48.0305V45H47.2595V47ZM46.2595 43.6562V46H48.2595V43.6562H46.2595ZM46.103 43.25C46.0716 43.25 46.0932 43.2324 46.1474 43.2983C46.2027 43.3655 46.2595 43.4898 46.2595 43.6562H48.2595C48.2595 42.5223 47.4654 41.25 46.103 41.25V43.25ZM42.2481 43.25H46.103V41.25H42.2481V43.25ZM42.0916 43.6562C42.0916 43.4898 42.1484 43.3655 42.2037 43.2983C42.2579 43.2324 42.2795 43.25 42.2481 43.25V41.25C40.8857 41.25 40.0916 42.5223 40.0916 43.6562H42.0916ZM42.0916 46V43.6562H40.0916V46H42.0916ZM10.2519 47H41.0916V45H10.2519V47ZM9.2519 43.6562V46H11.2519V43.6562H9.2519ZM9.09542 43.25C9.06397 43.25 9.08563 43.2324 9.13983 43.2983C9.19515 43.3655 9.2519 43.4898 9.2519 43.6562H11.2519C11.2519 42.5223 10.4578 41.25 9.09542 41.25V43.25ZM5.24046 43.25H9.09542V41.25H5.24046V43.25ZM5.08397 43.6562C5.08397 43.4898 5.14072 43.3655 5.19604 43.2983C5.25025 43.2324 5.27191 43.25 5.24046 43.25V41.25C3.87812 41.25 3.08397 42.5223 3.08397 43.6562H5.08397ZM5.08397 46V43.6562H3.08397V46H5.08397ZM3.31298 47H4.08397V45H3.31298V47ZM0 43.1875C0 45.1066 1.30491 47 3.31298 47V45C2.75749 45 2 44.3856 2 43.1875H0ZM0 3.8125V43.1875H2V3.8125H0ZM3.31298 0C1.3049 0 0 1.89342 0 3.8125H2C2 2.6144 2.7575 2 3.31298 2V0ZM4.08397 0H3.31298V2H4.08397V0ZM5.08397 3.34375V1H3.08397V3.34375H5.08397ZM5.24046 3.75C5.27192 3.75 5.25026 3.76764 5.19605 3.70173C5.14073 3.63446 5.08397 3.51022 5.08397 3.34375H3.08397C3.08397 4.47768 3.87809 5.75 5.24046 5.75V3.75ZM9.09542 3.75H5.24046V5.75H9.09542V3.75ZM9.2519 3.34375C9.2519 3.51022 9.19514 3.63447 9.13982 3.70174C9.08562 3.76765 9.06396 3.75 9.09542 3.75V5.75C10.4578 5.75 11.2519 4.47767 11.2519 3.34375H9.2519ZM9.2519 1V3.34375H11.2519V1H9.2519ZM41.0916 0H10.2519V2H41.0916V0ZM42.0916 3.34375V1H40.0916V3.34375H42.0916ZM42.2481 3.75C42.2795 3.75 42.2579 3.76763 42.2037 3.70173C42.1484 3.63447 42.0916 3.51023 42.0916 3.34375H40.0916C40.0916 4.47768 40.8857 5.75 42.2481 5.75V3.75ZM46.103 3.75H42.2481V5.75H46.103V3.75ZM46.2595 3.34375C46.2595 3.51023 46.2027 3.63447 46.1474 3.70173C46.0932 3.76763 46.0716 3.75 46.103 3.75V5.75C47.4654 5.75 48.2595 4.47767 48.2595 3.34375H46.2595ZM46.2595 1V3.34375H48.2595V1H46.2595ZM9.2519 37.0937C9.2519 37.2602 9.19513 37.3845 9.13982 37.4517C9.08562 37.5176 9.06396 37.5 9.09542 37.5V39.5C10.4578 39.5 11.2519 38.2277 11.2519 37.0937H9.2519ZM9.2519 32.4063V37.0937H11.2519V32.4063H9.2519ZM9.09542 32C9.06396 32 9.08562 31.9824 9.13982 32.0483C9.19513 32.1155 9.2519 32.2398 9.2519 32.4063H11.2519C11.2519 31.2723 10.4578 30 9.09542 30V32ZM5.24046 32H9.09542V30H5.24046V32ZM5.08397 32.4063C5.08397 32.2398 5.14074 32.1155 5.19606 32.0483C5.25026 31.9824 5.27191 32 5.24046 32V30C3.87808 30 3.08397 31.2723 3.08397 32.4063H5.08397ZM5.08397 37.0937V32.4063H3.08397V37.0937H5.08397ZM5.24046 37.5C5.27192 37.5 5.25026 37.5176 5.19606 37.4517C5.14074 37.3845 5.08397 37.2602 5.08397 37.0937H3.08397C3.08397 38.2277 3.87808 39.5 5.24046 39.5V37.5ZM9.09542 37.5H5.24046V39.5H9.09542V37.5ZM9.2519 25.8437C9.2519 26.0102 9.19513 26.1345 9.13982 26.2017C9.08562 26.2676 9.06396 26.25 9.09542 26.25V28.25C10.4578 28.25 11.2519 26.9777 11.2519 25.8437H9.2519ZM9.2519 21.1562V25.8437H11.2519V21.1562H9.2519ZM9.09542 20.75C9.06397 20.75 9.08563 20.7324 9.13983 20.7983C9.19515 20.8655 9.2519 20.9898 9.2519 21.1562H11.2519C11.2519 20.0223 10.4578 18.75 9.09542 18.75V20.75ZM5.24046 20.75H9.09542V18.75H5.24046V20.75ZM5.08397 21.1562C5.08397 20.9898 5.14072 20.8655 5.19604 20.7983C5.25025 20.7324 5.27191 20.75 5.24046 20.75V18.75C3.87812 18.75 3.08397 20.0223 3.08397 21.1562H5.08397ZM5.08397 25.8437V21.1562H3.08397V25.8437H5.08397ZM5.24046 26.25C5.27191 26.25 5.25026 26.2676 5.19606 26.2017C5.14074 26.1345 5.08397 26.0102 5.08397 25.8437H3.08397C3.08397 26.9777 3.87808 28.25 5.24046 28.25V26.25ZM9.09542 26.25H5.24046V28.25H9.09542V26.25ZM9.2519 14.5938C9.2519 14.7602 9.19515 14.8845 9.13983 14.9517C9.08563 15.0176 9.06397 15 9.09542 15V17C10.4578 17 11.2519 15.7277 11.2519 14.5938H9.2519ZM9.2519 9.9063V14.5938H11.2519V9.9063H9.2519ZM9.09542 9.5C9.06396 9.5 9.08562 9.48235 9.13982 9.54826C9.19513 9.61552 9.2519 9.73978 9.2519 9.9063H11.2519C11.2519 8.77234 10.4578 7.5 9.09542 7.5V9.5ZM5.24046 9.5H9.09542V7.5H5.24046V9.5ZM5.08397 9.9063C5.08397 9.73978 5.14074 9.61553 5.19606 9.54826C5.25026 9.48236 5.27191 9.5 5.24046 9.5V7.5C3.87808 7.5 3.08397 8.77233 3.08397 9.9063H5.08397ZM5.08397 14.5938V9.9063H3.08397V14.5938H5.08397ZM5.24046 15C5.27191 15 5.25025 15.0176 5.19604 14.9517C5.14072 14.8845 5.08397 14.7602 5.08397 14.5938H3.08397C3.08397 15.7277 3.87812 17 5.24046 17V15ZM9.09542 15H5.24046V17H9.09542V15ZM35.4656 38.9687C35.4656 39.1352 35.4088 39.2595 35.3535 39.3267C35.2993 39.3926 35.2777 39.375 35.3091 39.375V41.375C36.6715 41.375 37.4656 40.1027 37.4656 38.9687H35.4656ZM35.4656 27.7187V38.9687H37.4656V27.7187H35.4656ZM35.3091 27.3125C35.2777 27.3125 35.2993 27.2949 35.3535 27.3608C35.4088 27.428 35.4656 27.5523 35.4656 27.7187H37.4656C37.4656 26.5848 36.6715 25.3125 35.3091 25.3125V27.3125ZM16.0343 27.3125H35.3091V25.3125H16.0343V27.3125ZM15.8779 27.7187C15.8779 27.5523 15.9347 27.428 15.99 27.3607C16.0442 27.2948 16.0658 27.3125 16.0343 27.3125V25.3125C14.672 25.3125 13.8779 26.5848 13.8779 27.7187H15.8779ZM15.8779 38.9687V27.7187H13.8779V38.9687H15.8779ZM16.0343 39.375C16.0658 39.375 16.0442 39.3927 15.99 39.3268C15.9347 39.2595 15.8779 39.1352 15.8779 38.9687H13.8779C13.8779 40.1026 14.6719 41.375 16.0343 41.375V39.375ZM35.3091 39.375H16.0343V41.375H35.3091V39.375ZM35.4656 19.2812C35.4656 19.4477 35.4088 19.572 35.3535 19.6392C35.2993 19.7051 35.2777 19.6875 35.3091 19.6875V21.6875C36.6715 21.6875 37.4656 20.4152 37.4656 19.2812H35.4656ZM35.4656 8.0312V19.2812H37.4656V8.0312H35.4656ZM35.3091 7.625C35.2777 7.625 35.2993 7.60737 35.3535 7.67327C35.4088 7.74053 35.4656 7.86476 35.4656 8.0312H37.4656C37.4656 6.8973 36.6715 5.625 35.3091 5.625V7.625ZM16.0343 7.625H35.3091V5.625H16.0343V7.625ZM15.8779 8.0312C15.8779 7.86476 15.9347 7.74052 15.99 7.67325C16.0442 7.60732 16.0658 7.625 16.0343 7.625V5.625C14.672 5.625 13.8779 6.89736 13.8779 8.0312H15.8779ZM15.8779 19.2812V8.0312H13.8779V19.2812H15.8779ZM16.0343 19.6875C16.0658 19.6875 16.0442 19.7052 15.99 19.6393C15.9347 19.572 15.8779 19.4477 15.8779 19.2812H13.8779C13.8779 20.4151 14.6719 21.6875 16.0343 21.6875V19.6875ZM35.3091 19.6875H16.0343V21.6875H35.3091V19.6875ZM46.2595 37.0937C46.2595 37.2602 46.2027 37.3845 46.1474 37.4517C46.0932 37.5176 46.0716 37.5 46.103 37.5V39.5C47.4654 39.5 48.2595 38.2277 48.2595 37.0937H46.2595ZM46.2595 32.4063V37.0937H48.2595V32.4063H46.2595ZM46.103 32C46.0716 32 46.0932 31.9824 46.1474 32.0483C46.2027 32.1155 46.2595 32.2398 46.2595 32.4063H48.2595C48.2595 31.2723 47.4654 30 46.103 30V32ZM42.2481 32H46.103V30H42.2481V32ZM42.0916 32.4063C42.0916 32.2398 42.1484 32.1155 42.2037 32.0483C42.2579 31.9824 42.2795 32 42.2481 32V30C40.8857 30 40.0916 31.2723 40.0916 32.4063H42.0916ZM42.0916 37.0937V32.4063H40.0916V37.0937H42.0916ZM42.2481 37.5C42.2795 37.5 42.2579 37.5176 42.2037 37.4517C42.1484 37.3845 42.0916 37.2602 42.0916 37.0937H40.0916C40.0916 38.2277 40.8857 39.5 42.2481 39.5V37.5ZM46.103 37.5H42.2481V39.5H46.103V37.5ZM46.2595 25.8437C46.2595 26.0102 46.2027 26.1345 46.1474 26.2017C46.0932 26.2676 46.0716 26.25 46.103 26.25V28.25C47.4654 28.25 48.2595 26.9777 48.2595 25.8437H46.2595ZM46.2595 21.1562V25.8437H48.2595V21.1562H46.2595ZM46.103 20.75C46.0716 20.75 46.0932 20.7324 46.1474 20.7983C46.2027 20.8655 46.2595 20.9898 46.2595 21.1562H48.2595C48.2595 20.0223 47.4654 18.75 46.103 18.75V20.75ZM42.2481 20.75H46.103V18.75H42.2481V20.75ZM42.0916 21.1562C42.0916 20.9898 42.1484 20.8655 42.2037 20.7983C42.2579 20.7324 42.2795 20.75 42.2481 20.75V18.75C40.8857 18.75 40.0916 20.0223 40.0916 21.1562H42.0916ZM42.0916 25.8437V21.1562H40.0916V25.8437H42.0916ZM42.2481 26.25C42.2795 26.25 42.2579 26.2676 42.2037 26.2017C42.1484 26.1345 42.0916 26.0102 42.0916 25.8437H40.0916C40.0916 26.9777 40.8857 28.25 42.2481 28.25V26.25ZM46.103 26.25H42.2481V28.25H46.103V26.25ZM46.2595 14.5938C46.2595 14.7602 46.2027 14.8845 46.1474 14.9517C46.0932 15.0176 46.0716 15 46.103 15V17C47.4654 17 48.2595 15.7277 48.2595 14.5938H46.2595ZM46.2595 9.9063V14.5938H48.2595V9.9063H46.2595ZM46.103 9.5C46.0716 9.5 46.0932 9.48237 46.1474 9.54826C46.2027 9.61552 46.2595 9.73977 46.2595 9.9063H48.2595C48.2595 8.77234 47.4654 7.5 46.103 7.5V9.5ZM42.2481 9.5H46.103V7.5H42.2481V9.5ZM42.0916 9.9063C42.0916 9.73977 42.1484 9.61552 42.2037 9.54826C42.2579 9.48237 42.2795 9.5 42.2481 9.5V7.5C40.8857 7.5 40.0916 8.77233 40.0916 9.9063H42.0916ZM42.0916 14.5938V9.9063H40.0916V14.5938H42.0916ZM42.2481 15C42.2795 15 42.2579 15.0176 42.2037 14.9517C42.1484 14.8845 42.0916 14.7602 42.0916 14.5938H40.0916C40.0916 15.7277 40.8857 17 42.2481 17V15ZM46.103 15H42.2481V17H46.103V15ZM71.9558 28.8582L68.9318 35.5902L70.7562 36.4098L73.7802 29.6778L71.9558 28.8582ZM86.908 28.268H72.868V30.268H86.908V28.268ZM90.8442 35.5902L87.8202 28.8582L85.9958 29.6778L89.0198 36.4098L90.8442 35.5902ZM92.74 35H89.932V37H92.74V35ZM80.3105 11.2158L91.8305 36.4158L93.6495 35.5842L82.1295 10.3842L80.3105 11.2158ZM78.592 11.8H81.22V9.8H78.592V11.8ZM67.9815 36.4158L79.5015 11.2158L77.6825 10.3842L66.1625 35.5842L67.9815 36.4158ZM69.844 35H67.072V37H69.844V35ZM86.849 26.7001L80.801 13.1641L78.975 13.9799L85.023 27.5159L86.849 26.7001ZM73.84 28.108H85.936V26.108H73.84V28.108ZM78.975 13.1641L72.927 26.7001L74.753 27.5159L80.801 13.9799L78.975 13.1641ZM112.081 17.064V36H114.081V17.064H112.081ZM110.525 18.064H113.081V16.064H110.525V18.064ZM111.525 27V17.064H109.525V27H111.525ZM109.525 32.7614C110.897 31.3035 111.525 29.3394 111.525 27H109.525C109.525 28.9806 109.001 30.4005 108.069 31.3906L109.525 32.7614ZM104.081 34.876C106.287 34.876 108.141 34.2032 109.519 32.7685L108.076 31.3835C107.149 32.3488 105.859 32.876 104.081 32.876V34.876ZM99.1454 33.0181C100.367 34.2996 102.064 34.876 104.081 34.876V32.876C102.45 32.876 101.339 32.4204 100.593 31.6379L99.1454 33.0181ZM97.3931 27.792C97.3931 29.9381 97.9239 31.737 99.1454 33.0181L100.593 31.6379C99.8463 30.855 99.3931 29.6299 99.3931 27.792H97.3931ZM97.3931 17.064V27.792H99.3931V17.064H97.3931ZM95.8371 18.064H98.3931V16.064H95.8371V18.064ZM96.8371 28.044V17.064H94.8371V28.044H96.8371ZM98.6622 33.4149C97.4958 32.2682 96.8371 30.5345 96.8371 28.044H94.8371C94.8371 30.8815 95.5945 33.2038 97.2601 34.8411L98.6622 33.4149ZM103.829 35.18C101.548 35.18 99.8612 34.5538 98.6499 33.403L97.2724 34.853C98.941 36.4382 101.167 37.18 103.829 37.18V35.18ZM107.392 34.3607C106.379 34.8982 105.2 35.18 103.829 35.18V37.18C105.482 37.18 106.991 36.8378 108.33 36.1273L107.392 34.3607ZM109.769 32.0401C109.189 33.0348 108.397 33.8068 107.379 34.3682L108.344 36.1198C109.677 35.3852 110.733 34.3571 111.497 33.0479L109.769 32.0401ZM111.633 36V32.544H109.633V36H111.633ZM113.081 35H110.633V37H113.081V35ZM123.592 21.1986C124.107 20.1074 124.852 19.3092 125.834 18.7678L124.869 17.0162C123.5 17.7708 122.469 18.8926 121.783 20.3454L123.592 21.1986ZM121.688 17.064V20.772H123.688V17.064H121.688ZM120.24 18.064H122.688V16.064H120.24V18.064ZM121.24 36V17.064H119.24V36H121.24ZM122.796 35H120.24V37H122.796V35ZM121.796 26.352V36H123.796V26.352H121.796ZM123.752 20.5263C122.405 21.9885 121.796 23.9767 121.796 26.352H123.796C123.796 24.3113 124.315 22.8675 125.223 21.8817L123.752 20.5263ZM129.168 18.368C126.956 18.368 125.107 19.0568 123.752 20.5263L125.223 21.8817C126.125 20.9032 127.395 20.368 129.168 20.368V18.368ZM129.839 18.4057L129.227 18.3697L129.109 20.3663L129.721 20.4023L129.839 18.4057ZM128.78 16.92V19.404H130.78V16.92H128.78ZM125.827 18.7719C126.845 18.222 128.148 17.92 129.78 17.92V15.92C127.908 15.92 126.258 16.266 124.877 17.0121L125.827 18.7719ZM140.997 17.92C143.307 17.92 144.922 18.5015 145.998 19.5186L147.372 18.0654C145.807 16.5865 143.63 15.92 140.997 15.92V17.92ZM137.07 18.551C138.305 18.1318 139.613 17.92 140.997 17.92V15.92C139.405 15.92 137.88 16.1642 136.427 16.657L137.07 18.551ZM133.94 20.2379C134.789 19.5168 135.821 18.9526 137.055 18.556L136.443 16.652C134.988 17.1194 133.717 17.8032 132.645 18.7141L133.94 20.2379ZM135.301 20.8671L134.149 18.9591L132.437 19.9929L133.589 21.9009L135.301 20.8671ZM136.96 18.8195C135.747 19.2413 134.683 19.8428 133.784 20.6328L135.105 22.1352C135.79 21.5332 136.622 21.0547 137.617 20.7085L136.96 18.8195ZM140.745 18.152C139.429 18.152 138.159 18.3762 136.942 18.826L137.635 20.702C138.626 20.3358 139.661 20.152 140.745 20.152V18.152ZM145.428 19.722C144.268 18.6227 142.651 18.152 140.745 18.152V20.152C142.343 20.152 143.389 20.5453 144.053 21.174L145.428 19.722ZM147.109 24.156C147.109 22.3375 146.595 20.7967 145.418 19.7125L144.063 21.1835C144.71 21.7793 145.109 22.7105 145.109 24.156H147.109ZM147.109 25.308V24.156H145.109V25.308H147.109ZM140.097 26.308H146.109V24.308H140.097V26.308ZM135.158 27.5509C136.069 26.789 137.644 26.308 140.097 26.308V24.308C137.461 24.308 135.316 24.811 133.875 26.0171L135.158 27.5509ZM133.789 30.672C133.789 29.3361 134.252 28.3255 135.166 27.5444L133.867 26.0236C132.478 27.2105 131.789 28.7919 131.789 30.672H133.789ZM135.289 33.8901C134.285 33.0789 133.789 32.0371 133.789 30.672H131.789C131.789 32.6189 132.541 34.2411 134.032 35.4459L135.289 33.8901ZM139.701 35.18C137.744 35.18 136.31 34.7144 135.289 33.8901L134.032 35.4459C135.508 36.6376 137.433 37.18 139.701 37.18V35.18ZM143.213 34.4576C142.278 34.9253 141.118 35.18 139.701 35.18V37.18C141.355 37.18 142.835 36.8827 144.108 36.2464L143.213 34.4576ZM145.354 32.5428C144.887 33.3399 144.191 33.9791 143.221 34.4538L144.1 36.2502C145.386 35.6208 146.394 34.7241 147.08 33.5532L145.354 32.5428ZM147.217 36V33.048H145.217V36H147.217ZM148.665 35H146.217V37H148.665V35ZM147.665 24.264V36H149.665V24.264H147.665ZM146.005 19.5253C147.057 20.5011 147.665 22.0178 147.665 24.264H149.665C149.665 21.6622 148.952 19.5309 147.365 18.0587L146.005 19.5253ZM140.097 35.164C141.69 35.164 143.118 34.8039 144.336 34.0389L143.273 32.3451C142.427 32.8761 141.383 33.164 140.097 33.164V35.164ZM135.972 34.0307C137.046 34.8286 138.462 35.164 140.097 35.164V33.164C138.707 33.164 137.771 32.8754 137.165 32.4253L135.972 34.0307ZM134.309 30.6C134.309 31.9993 134.861 33.1736 135.958 34.0198L137.179 32.4362C136.596 31.9864 136.309 31.4087 136.309 30.6H134.309ZM140.169 26.216C138.463 26.216 137.006 26.5073 135.952 27.2413C134.832 28.0212 134.309 29.1989 134.309 30.6H136.309C136.309 29.7451 136.595 29.2308 137.095 28.8827C137.661 28.4887 138.634 28.216 140.169 28.216V26.216ZM146.109 26.216H140.169V28.216H146.109V26.216ZM147.109 30.312V27.216H145.109V30.312H147.109ZM144.35 34.03C145.57 33.2358 146.463 32.1059 147.036 30.6865L145.181 29.9375C144.747 31.0141 144.103 31.8042 143.259 32.354L144.35 34.03ZM193.928 10.6039L188.888 35.8039L190.849 36.1961L195.889 10.9961L193.928 10.6039ZM192.569 11.8H194.909V9.8H192.569V11.8ZM178.961 30.1297L193.361 11.4097L191.776 10.1903L177.376 28.9103L178.961 30.1297ZM169.965 11.1621L177.237 29.8821L179.101 29.1579L171.829 10.4379L169.965 11.1621ZM168.737 11.8H170.897V9.8H168.737V11.8ZM164.677 36.1961L169.717 10.9961L167.756 10.6039L162.716 35.8039L164.677 36.1961ZM166.253 35H163.697V37H166.253V35ZM169.304 15.5012L165.272 35.8052L167.234 36.1948L171.266 15.8908L169.304 15.5012ZM177.947 32.4297L171.215 15.3297L169.354 16.0623L176.086 33.1623L177.947 32.4297ZM178.277 31.796H177.017V33.796H178.277V31.796ZM190.519 15.4065L177.487 32.1825L179.067 33.4095L192.099 16.6335L190.519 15.4065ZM188.293 36.1961L192.289 16.2161L190.328 15.8239L186.332 35.8039L188.293 36.1961ZM189.869 35H187.313V37H189.869V35ZM205.964 35.18C204.361 35.18 203.008 34.88 201.875 34.3136L200.98 36.1024C202.44 36.832 204.11 37.18 205.964 37.18V35.18ZM211.078 33.8749C209.588 34.7386 207.892 35.18 205.964 35.18V37.18C208.211 37.18 210.259 36.6614 212.081 35.6051L211.078 33.8749ZM214.627 30.2266C213.778 31.772 212.599 32.9843 211.074 33.8771L212.085 35.6029C213.921 34.5277 215.357 33.052 216.38 31.1894L214.627 30.2266ZM215.908 24.912C215.908 26.8965 215.474 28.6625 214.624 30.2317L216.383 31.1843C217.405 29.2975 217.908 27.1995 217.908 24.912H215.908ZM213.889 19.8148C215.212 21.0359 215.908 22.6962 215.908 24.912H217.908C217.908 22.2318 217.043 20.0041 215.246 18.3452L213.889 19.8148ZM208.304 17.92C210.757 17.92 212.577 18.5845 213.884 19.8095L215.252 18.3505C213.486 16.6955 211.13 15.92 208.304 15.92V17.92ZM203.157 19.2589C204.673 18.3712 206.38 17.92 208.304 17.92V15.92C206.051 15.92 203.991 16.4528 202.146 17.5331L203.157 19.2589ZM199.64 22.8734C200.49 21.3265 201.657 20.1283 203.153 19.2611L202.15 17.5309C200.334 18.5837 198.909 20.0495 197.887 21.9106L199.64 22.8734ZM198.36 28.152C198.36 26.1673 198.793 24.4157 199.64 22.8734L197.887 21.9106C196.862 23.7763 196.36 25.8647 196.36 28.152H198.36ZM199.273 31.9057C198.674 30.8527 198.36 29.6117 198.36 28.152H196.36C196.36 29.9083 196.741 31.4993 197.534 32.8943L199.273 31.9057ZM201.888 34.3202C200.749 33.7296 199.882 32.9197 199.261 31.8855L197.546 32.9145C198.366 34.2803 199.514 35.3424 200.967 36.0958L201.888 34.3202ZM206.144 34.912C207.87 34.912 209.453 34.4981 210.868 33.6549L209.844 31.9371C208.762 32.5819 207.537 32.912 206.144 32.912V34.912ZM200.853 33.0945C202.193 34.347 204.001 34.912 206.144 34.912V32.912C204.35 32.912 203.087 32.445 202.219 31.6335L200.853 33.0945ZM198.916 28.044C198.916 30.096 199.522 31.8234 200.845 33.087L202.227 31.641C201.389 30.8406 200.916 29.688 200.916 28.044H198.916ZM200.072 23.0481C199.294 24.5493 198.916 26.2218 198.916 28.044H200.916C200.916 26.5062 201.233 25.1547 201.848 23.9679L200.072 23.0481ZM203.388 19.4523C201.978 20.3195 200.873 21.5247 200.075 23.0423L201.845 23.9737C202.486 22.7553 203.349 21.8245 204.436 21.1557L203.388 19.4523ZM208.124 18.152C206.391 18.152 204.803 18.581 203.388 19.4523L204.436 21.1557C205.516 20.491 206.736 20.152 208.124 20.152V18.152ZM213.395 20.021C212.076 18.7319 210.271 18.152 208.124 18.152V20.152C209.912 20.152 211.155 20.6281 211.997 21.451L213.395 20.021ZM215.352 25.056C215.352 22.9974 214.729 21.2676 213.379 20.0055L212.013 21.4665C212.871 22.2684 213.352 23.4186 213.352 25.056H215.352ZM214.157 30.0937C214.959 28.5699 215.352 26.8839 215.352 25.056H213.352C213.352 26.5881 213.025 27.9501 212.387 29.1623L214.157 30.0937ZM210.88 33.6477C212.288 32.7813 213.383 31.5875 214.16 30.0879L212.384 29.1681C211.768 30.3565 210.92 31.2747 209.832 31.9443L210.88 33.6477ZM238.433 16.5234L226.265 35.4594L227.948 36.5406L240.116 17.6046L238.433 16.5234ZM236.611 18.064H239.275V16.064H236.611V18.064ZM227.121 33.7666L237.453 17.6026L235.768 16.5254L225.436 32.6894L227.121 33.7666ZM221.383 17.2999L225.307 33.4639L227.25 32.9921L223.326 16.8281L221.383 17.2999ZM219.799 18.064H222.355V16.064H219.799V18.064ZM225.449 35.7601L220.769 16.8241L218.828 17.3039L223.508 36.2399L225.449 35.7601ZM227.107 35H224.479V37H227.107V35ZM242.838 18.064H245.394V16.064H242.838V18.064ZM240.075 36.194L243.819 17.258L241.857 16.87L238.113 35.806L240.075 36.194ZM241.65 35H239.094V37H241.65V35ZM244.413 16.87L240.669 35.806L242.631 36.194L246.375 17.258L244.413 16.87ZM245.214 11.924C244.958 11.924 244.798 11.8491 244.661 11.7129L243.247 13.1271C243.783 13.6629 244.463 13.924 245.214 13.924V11.924ZM245.947 11.6409C245.763 11.8251 245.543 11.924 245.214 11.924V13.924C246.038 13.924 246.778 13.6389 247.361 13.0551L245.947 11.6409ZM246.23 10.908C246.23 11.2366 246.131 11.4567 245.947 11.6409L247.361 13.0551C247.945 12.4713 248.23 11.7314 248.23 10.908H246.23ZM246.046 10.5248C246.192 10.6606 246.23 10.7727 246.23 10.908H248.23C248.23 10.1793 247.933 9.54738 247.407 9.05921L246.046 10.5248ZM245.466 10.288C245.723 10.288 245.883 10.3629 246.019 10.4991L247.433 9.08489C246.898 8.54909 246.218 8.288 245.466 8.288V10.288ZM244.733 10.5711C244.918 10.3869 245.138 10.288 245.466 10.288V8.288C244.643 8.288 243.903 8.5731 243.319 9.15689L244.733 10.5711ZM244.486 11.232C244.486 10.9206 244.578 10.7268 244.733 10.5711L243.319 9.15691C242.755 9.72117 242.486 10.4394 242.486 11.232H244.486ZM244.687 11.7396C244.546 11.5874 244.486 11.434 244.486 11.232H242.486C242.486 11.942 242.739 12.5806 243.222 13.1004L244.687 11.7396ZM250.148 27.1107C250.114 27.3513 250.102 27.661 250.102 28.008H252.102C252.102 27.683 252.115 27.4887 252.128 27.3933L250.148 27.1107ZM267.05 26.252H251.138V28.252H267.05V26.252ZM266.302 24.948C266.302 25.5651 266.228 26.2663 266.07 27.0559L268.031 27.4481C268.209 26.5577 268.302 25.7229 268.302 24.948H266.302ZM264.381 19.8044C265.629 20.9921 266.302 22.6625 266.302 24.948H268.302C268.302 22.2415 267.488 19.9999 265.76 18.3556L264.381 19.8044ZM259.058 17.92C261.378 17.92 263.112 18.5767 264.375 19.7986L265.766 18.3614C264.052 16.7033 261.778 15.92 259.058 15.92V17.92ZM254.18 19.249C255.622 18.3667 257.24 17.92 259.058 17.92V15.92C256.893 15.92 254.911 16.4573 253.136 17.543L254.18 19.249ZM250.796 22.8639C251.627 21.3107 252.753 20.1142 254.177 19.2512L253.14 17.5408C251.396 18.5978 250.025 20.0653 249.033 21.9201L250.796 22.8639ZM249.582 28.116C249.582 26.1487 249.995 24.4017 250.801 22.8541L249.027 21.9299C248.058 23.7903 247.582 25.8593 247.582 28.116H249.582ZM251.601 33.2852C250.282 32.068 249.582 30.3864 249.582 28.116H247.582C247.582 30.8376 248.443 33.092 250.244 34.7548L251.601 33.2852ZM257.402 35.18C254.844 35.18 252.948 34.5102 251.595 33.2801L250.25 34.7599C252.065 36.4098 254.489 37.18 257.402 37.18V35.18ZM261.273 34.5202C260.068 34.9581 258.781 35.18 257.402 35.18V37.18C259 37.18 260.52 36.9219 261.956 36.3998L261.273 34.5202ZM264.255 32.6649C263.482 33.4385 262.493 34.0626 261.263 34.5237L261.965 36.3963C263.424 35.8494 264.667 35.0815 265.669 34.0791L264.255 32.6649ZM262.963 32.0675L264.115 33.9035L265.809 32.8405L264.657 31.0045L262.963 32.0675ZM261.475 34.2312C262.695 33.7537 263.727 33.0886 264.541 32.2191L263.08 30.8529C262.501 31.4714 261.734 31.9823 260.746 32.3688L261.475 34.2312ZM257.618 34.912C258.977 34.912 260.262 34.6895 261.464 34.2355L260.757 32.3645C259.799 32.7265 258.755 32.912 257.618 32.912V34.912ZM252.048 33.1385C253.404 34.3764 255.319 34.912 257.618 34.912V32.912C255.598 32.912 254.249 32.4396 253.397 31.6615L252.048 33.1385ZM250.102 28.008C250.102 30.1176 250.701 31.8815 252.04 33.1311L253.405 31.6689C252.583 30.9025 252.102 29.7384 252.102 28.008H250.102ZM258.986 18.08C256.876 18.08 255.023 18.7143 253.483 20.006L254.769 21.538C255.918 20.5737 257.305 20.08 258.986 20.08V18.08ZM263.98 19.8168C262.675 18.6283 260.975 18.08 258.986 18.08V20.08C260.598 20.08 261.777 20.5157 262.633 21.2952L263.98 19.8168ZM265.926 24.66C265.926 22.6692 265.312 21.0008 263.971 19.8086L262.642 21.3034C263.461 22.0312 263.926 23.0988 263.926 24.66H265.926ZM265.88 25.4853C265.914 25.2494 265.926 24.9676 265.926 24.66H263.926C263.926 24.9284 263.915 25.1026 263.9 25.2027L265.88 25.4853ZM251.39 26.344H264.89V24.344H251.39V26.344ZM253.483 20.006C251.958 21.2867 250.944 23.0042 250.42 25.1015L252.36 25.5865C252.796 23.8438 253.607 22.5133 254.769 21.538L253.483 20.006Z" fill="white" mask="url(#path-1-outside-1_5:44)"/>
</svg>
