<svg width="355" height="141" viewBox="0 0 355 141" fill="none" xmlns="http://www.w3.org/2000/svg">
<path fill-rule="evenodd" clip-rule="evenodd" d="M333.665 128.225C346.389 128.225 355 119.562 355 106.76V21.4644C355 8.66298 346.389 0 333.665 0H21.335C8.61069 0 0 8.66298 0 21.4644V141L10.9465 128.234V21.4644C10.9511 18.6939 12.047 16.0381 13.9943 14.0791C15.9415 12.12 18.5812 11.0174 21.335 11.0128H333.665C336.419 11.0174 339.059 12.12 341.006 14.0791C342.953 16.0381 344.049 18.6939 344.054 21.4644V106.76C344.049 109.531 342.953 112.187 341.006 114.146C339.059 116.105 336.419 117.207 333.665 117.212H37.5368L26.6776 128.137L26.5208 128.137L26.5904 128.225L26.6776 128.137L333.665 128.225ZM51.6875 37.3906C51.5469 38.5938 51.1016 39.5234 50.3516 40.1797C49.6068 40.8307 48.6146 41.1562 47.375 41.1562C46.0312 41.1562 44.9531 40.6745 44.1406 39.7109C43.3333 38.7474 42.9297 37.4583 42.9297 35.8438V34.75C42.9297 33.6927 43.1172 32.763 43.4922 31.9609C43.8724 31.1589 44.4089 30.5443 45.1016 30.1172C45.7943 29.6849 46.5964 29.4688 47.5078 29.4688C48.7161 29.4688 49.6849 29.8073 50.4141 30.4844C51.1432 31.1562 51.5677 32.0885 51.6875 33.2812H50.1797C50.0495 32.375 49.7656 31.7188 49.3281 31.3125C48.8958 30.9062 48.2891 30.7031 47.5078 30.7031C46.5495 30.7031 45.7969 31.0573 45.25 31.7656C44.7083 32.474 44.4375 33.4818 44.4375 34.7891V35.8906C44.4375 37.125 44.6953 38.1068 45.2109 38.8359C45.7266 39.5651 46.4479 39.9297 47.375 39.9297C48.2083 39.9297 48.8464 39.7422 49.2891 39.3672C49.737 38.987 50.0339 38.3281 50.1797 37.3906H51.6875ZM57.9141 36.3984H55.2422V41H53.7344V29.625H57.5C58.7812 29.625 59.7656 29.9167 60.4531 30.5C61.1458 31.0833 61.4922 31.9323 61.4922 33.0469C61.4922 33.7552 61.2995 34.3724 60.9141 34.8984C60.5339 35.4245 60.0026 35.8177 59.3203 36.0781L61.9922 40.9062V41H60.3828L57.9141 36.3984ZM55.2422 35.1719H57.5469C58.2917 35.1719 58.8828 34.9792 59.3203 34.5938C59.763 34.2083 59.9844 33.6927 59.9844 33.0469C59.9844 32.3438 59.7734 31.8047 59.3516 31.4297C58.9349 31.0547 58.3307 30.8646 57.5391 30.8594H55.2422V35.1719ZM70.0312 35.7422H65.1016V39.7734H70.8281V41H63.6016V29.625H70.75V30.8594H65.1016V34.5156H70.0312V35.7422ZM74.2109 38.0312L73.1406 41H71.5938L75.9375 29.625H77.25L81.6016 41H80.0625L78.9766 38.0312H74.2109ZM74.6641 36.7969H78.5312L76.5938 31.4766L74.6641 36.7969ZM89.9766 30.8594H86.3203V41H84.8281V30.8594H81.1797V29.625H89.9766V30.8594ZM98.0938 35.7422H93.1641V39.7734H98.8906V41H91.6641V29.625H98.8125V30.8594H93.1641V34.5156H98.0938V35.7422ZM100.758 41V29.625H103.969C104.958 29.625 105.833 29.8438 106.594 30.2812C107.354 30.7188 107.94 31.3411 108.352 32.1484C108.768 32.9557 108.979 33.8828 108.984 34.9297V35.6562C108.984 36.7292 108.776 37.6693 108.359 38.4766C107.948 39.2839 107.357 39.9036 106.586 40.3359C105.82 40.7682 104.927 40.9896 103.906 41H100.758ZM102.258 30.8594V39.7734H103.836C104.992 39.7734 105.891 39.4141 106.531 38.6953C107.177 37.9766 107.5 36.9531 107.5 35.625V34.9609C107.5 33.6693 107.195 32.6667 106.586 31.9531C105.982 31.2344 105.122 30.8698 104.008 30.8594H102.258ZM115.227 41V29.625H118.945C120.18 29.625 121.107 29.8802 121.727 30.3906C122.352 30.901 122.664 31.6562 122.664 32.6562C122.664 33.1875 122.513 33.6589 122.211 34.0703C121.909 34.4766 121.497 34.7917 120.977 35.0156C121.591 35.1875 122.076 35.5156 122.43 36C122.789 36.4792 122.969 37.0521 122.969 37.7188C122.969 38.7396 122.638 39.5417 121.977 40.125C121.315 40.7083 120.38 41 119.172 41H115.227ZM116.727 35.6797V39.7734H119.203C119.901 39.7734 120.451 39.5938 120.852 39.2344C121.258 38.8698 121.461 38.3698 121.461 37.7344C121.461 36.3646 120.716 35.6797 119.227 35.6797H116.727ZM116.727 34.4766H118.992C119.648 34.4766 120.172 34.3125 120.562 33.9844C120.958 33.6562 121.156 33.2109 121.156 32.6484C121.156 32.0234 120.974 31.5703 120.609 31.2891C120.245 31.0026 119.69 30.8594 118.945 30.8594H116.727V34.4766ZM128.227 35.3359L131.195 29.625H132.898L128.977 36.7578V41H127.477V36.7578L123.555 29.625H125.273L128.227 35.3359ZM67.552 83.9L73.312 92H76.228L70.072 83.36C71.92 82.76 73.336 81.788 74.32 80.444C75.328 79.076 75.832 77.408 75.832 75.44C75.832 72.752 74.92 70.64 73.096 69.104C71.272 67.568 68.752 66.8 65.536 66.8H56.104V92H58.768V84.008H65.536C66.232 84.008 66.904 83.972 67.552 83.9ZM71.188 80.084C69.868 81.188 67.96 81.74 65.464 81.74H58.768V69.104H65.464C67.96 69.104 69.868 69.656 71.188 70.76C72.508 71.84 73.168 73.4 73.168 75.44C73.168 77.432 72.508 78.98 71.188 80.084ZM84.1356 73.064H81.5796V92H84.1356V73.064ZM81.5436 68.384C81.9036 68.744 82.3476 68.924 82.8756 68.924C83.4036 68.924 83.8476 68.744 84.2076 68.384C84.5676 68.024 84.7476 67.58 84.7476 67.052C84.7476 66.572 84.5676 66.164 84.2076 65.828C83.8476 65.468 83.4036 65.288 82.8756 65.288C82.3476 65.288 81.9036 65.468 81.5436 65.828C81.1836 66.188 81.0036 66.608 81.0036 67.088C81.0036 67.592 81.1836 68.024 81.5436 68.384ZM91.8956 91.532C93.3116 91.964 94.7876 92.18 96.3236 92.18C98.7716 92.18 100.68 91.7 102.048 90.74C103.44 89.756 104.136 88.436 104.136 86.78C104.136 85.556 103.812 84.596 103.164 83.9C102.516 83.204 101.736 82.712 100.824 82.424C99.9116 82.136 98.6996 81.848 97.1876 81.56C95.9636 81.344 95.0036 81.14 94.3076 80.948C93.6116 80.732 93.0236 80.408 92.5436 79.976C92.0876 79.544 91.8596 78.968 91.8596 78.248C91.8596 77.312 92.2676 76.556 93.0836 75.98C93.9236 75.404 95.1596 75.116 96.7916 75.116C98.9516 75.116 100.812 75.656 102.372 76.736L103.488 74.684C102.696 74.156 101.688 73.736 100.464 73.424C99.2396 73.088 98.0156 72.92 96.7916 72.92C94.4396 72.92 92.6036 73.424 91.2836 74.432C89.9636 75.44 89.3036 76.736 89.3036 78.32C89.3036 79.592 89.6276 80.588 90.2756 81.308C90.9476 82.028 91.7516 82.544 92.6876 82.856C93.6236 83.144 94.8596 83.432 96.3956 83.72C97.5476 83.912 98.4716 84.116 99.1676 84.332C99.8636 84.524 100.44 84.824 100.896 85.232C101.352 85.616 101.58 86.156 101.58 86.852C101.58 87.836 101.16 88.604 100.32 89.156C99.5036 89.684 98.2316 89.948 96.5036 89.948C95.2076 89.948 93.9596 89.756 92.7596 89.372C91.5596 88.964 90.5636 88.448 89.7716 87.824L88.6196 89.84C89.4116 90.512 90.5036 91.076 91.8956 91.532ZM123.441 74.144C122.001 73.328 120.393 72.92 118.617 72.92C117.033 72.92 115.605 73.256 114.333 73.928C113.085 74.6 112.077 75.56 111.309 76.808V73.064H108.861V98.984H111.417V88.436C112.209 89.66 113.217 90.596 114.441 91.244C115.689 91.868 117.081 92.18 118.617 92.18C120.417 92.18 122.025 91.784 123.441 90.992C124.881 90.176 126.009 89.036 126.825 87.572C127.641 86.108 128.049 84.428 128.049 82.532C128.049 80.66 127.641 78.992 126.825 77.528C126.009 76.064 124.881 74.936 123.441 74.144ZM122.037 89.012C120.957 89.612 119.757 89.912 118.437 89.912C117.093 89.912 115.881 89.612 114.801 89.012C113.745 88.388 112.905 87.512 112.281 86.384C111.681 85.256 111.381 83.972 111.381 82.532C111.381 81.092 111.681 79.82 112.281 78.716C112.905 77.588 113.745 76.712 114.801 76.088C115.881 75.464 117.093 75.152 118.437 75.152C119.757 75.152 120.957 75.464 122.037 76.088C123.117 76.712 123.957 77.588 124.557 78.716C125.181 79.82 125.493 81.092 125.493 82.532C125.493 83.972 125.181 85.256 124.557 86.384C123.957 87.512 123.117 88.388 122.037 89.012ZM136.067 90.956C137.531 91.772 139.175 92.18 140.999 92.18C142.823 92.18 144.467 91.772 145.931 90.956C147.395 90.116 148.535 88.964 149.351 87.5C150.191 86.036 150.611 84.38 150.611 82.532C150.611 80.684 150.191 79.028 149.351 77.564C148.535 76.1 147.395 74.96 145.931 74.144C144.467 73.328 142.823 72.92 140.999 72.92C139.175 72.92 137.531 73.328 136.067 74.144C134.603 74.96 133.451 76.1 132.611 77.564C131.771 79.028 131.351 80.684 131.351 82.532C131.351 84.38 131.771 86.036 132.611 87.5C133.451 88.964 134.603 90.116 136.067 90.956ZM144.599 89.012C143.543 89.612 142.343 89.912 140.999 89.912C139.655 89.912 138.443 89.612 137.363 89.012C136.307 88.388 135.467 87.512 134.843 86.384C134.243 85.256 133.943 83.972 133.943 82.532C133.943 81.092 134.243 79.808 134.843 78.68C135.467 77.552 136.307 76.688 137.363 76.088C138.443 75.464 139.655 75.152 140.999 75.152C142.343 75.152 143.543 75.464 144.599 76.088C145.679 76.688 146.519 77.552 147.119 78.68C147.719 79.808 148.019 81.092 148.019 82.532C148.019 83.972 147.719 85.256 147.119 86.384C146.519 87.512 145.679 88.388 144.599 89.012ZM156.478 91.532C157.894 91.964 159.37 92.18 160.906 92.18C163.354 92.18 165.262 91.7 166.63 90.74C168.022 89.756 168.718 88.436 168.718 86.78C168.718 85.556 168.394 84.596 167.746 83.9C167.098 83.204 166.318 82.712 165.406 82.424C164.494 82.136 163.282 81.848 161.77 81.56C160.546 81.344 159.586 81.14 158.89 80.948C158.194 80.732 157.606 80.408 157.126 79.976C156.67 79.544 156.442 78.968 156.442 78.248C156.442 77.312 156.85 76.556 157.666 75.98C158.506 75.404 159.742 75.116 161.374 75.116C163.534 75.116 165.394 75.656 166.954 76.736L168.07 74.684C167.278 74.156 166.27 73.736 165.046 73.424C163.822 73.088 162.598 72.92 161.374 72.92C159.022 72.92 157.186 73.424 155.866 74.432C154.546 75.44 153.886 76.736 153.886 78.32C153.886 79.592 154.21 80.588 154.858 81.308C155.53 82.028 156.334 82.544 157.27 82.856C158.206 83.144 159.442 83.432 160.978 83.72C162.13 83.912 163.054 84.116 163.75 84.332C164.446 84.524 165.022 84.824 165.478 85.232C165.934 85.616 166.162 86.156 166.162 86.852C166.162 87.836 165.742 88.604 164.902 89.156C164.086 89.684 162.814 89.948 161.086 89.948C159.79 89.948 158.542 89.756 157.342 89.372C156.142 88.964 155.146 88.448 154.354 87.824L153.202 89.84C153.994 90.512 155.086 91.076 156.478 91.532ZM175.999 73.064H173.443V92H175.999V73.064ZM173.407 68.384C173.767 68.744 174.211 68.924 174.739 68.924C175.267 68.924 175.711 68.744 176.071 68.384C176.431 68.024 176.611 67.58 176.611 67.052C176.611 66.572 176.431 66.164 176.071 65.828C175.711 65.468 175.267 65.288 174.739 65.288C174.211 65.288 173.767 65.468 173.407 65.828C173.047 66.188 172.867 66.608 172.867 67.088C172.867 67.592 173.047 68.024 173.407 68.384ZM184.767 88.832C184.407 88.448 183.951 88.256 183.399 88.256C182.847 88.256 182.391 88.448 182.031 88.832C181.671 89.192 181.491 89.648 181.491 90.2C181.491 90.656 181.611 91.052 181.851 91.388C182.091 91.7 182.403 91.916 182.787 92.036L181.563 97.256H183.291L184.803 92.288C184.971 91.856 185.091 91.472 185.163 91.136C185.259 90.8 185.307 90.488 185.307 90.2C185.307 89.648 185.127 89.192 184.767 88.832ZM202.25 91.316C203.978 91.916 205.778 92.216 207.65 92.216C209.714 92.216 211.454 91.916 212.87 91.316C214.286 90.692 215.33 89.864 216.002 88.832C216.698 87.776 217.046 86.612 217.046 85.34C217.046 83.804 216.65 82.592 215.858 81.704C215.066 80.792 214.094 80.12 212.942 79.688C211.814 79.232 210.326 78.776 208.478 78.32C206.918 77.936 205.67 77.588 204.734 77.276C203.822 76.94 203.054 76.472 202.43 75.872C201.83 75.248 201.53 74.432 201.53 73.424C201.53 72.08 202.082 70.988 203.186 70.148C204.314 69.284 205.982 68.852 208.19 68.852C209.342 68.852 210.518 69.032 211.718 69.392C212.918 69.728 214.046 70.244 215.102 70.94L216.002 68.816C214.994 68.12 213.794 67.58 212.402 67.196C211.034 66.788 209.63 66.584 208.19 66.584C206.126 66.584 204.398 66.896 203.006 67.52C201.614 68.144 200.582 68.984 199.91 70.04C199.238 71.072 198.902 72.224 198.902 73.496C198.902 75.056 199.298 76.292 200.09 77.204C200.906 78.116 201.878 78.8 203.006 79.256C204.134 79.688 205.646 80.144 207.542 80.624C209.126 81.008 210.362 81.368 211.25 81.704C212.138 82.016 212.882 82.472 213.482 83.072C214.106 83.672 214.418 84.476 214.418 85.484C214.418 86.804 213.854 87.884 212.726 88.724C211.598 89.54 209.906 89.948 207.65 89.948C206.042 89.948 204.482 89.672 202.97 89.12C201.458 88.544 200.246 87.8 199.334 86.888L198.29 88.94C199.226 89.924 200.546 90.716 202.25 91.316ZM222.958 83.324H238.798L238.834 82.532C238.834 80.66 238.438 79.004 237.646 77.564C236.854 76.1 235.762 74.96 234.37 74.144C232.978 73.328 231.406 72.92 229.654 72.92C227.902 72.92 226.318 73.328 224.902 74.144C223.51 74.96 222.406 76.1 221.59 77.564C220.798 79.028 220.402 80.684 220.402 82.532C220.402 84.38 220.822 86.036 221.662 87.5C222.502 88.964 223.666 90.116 225.154 90.956C226.666 91.772 228.394 92.18 230.338 92.18C231.85 92.18 233.23 91.916 234.478 91.388C235.75 90.86 236.806 90.092 237.646 89.084L236.206 87.428C235.486 88.244 234.634 88.868 233.65 89.3C232.666 89.708 231.586 89.912 230.41 89.912C228.322 89.912 226.594 89.312 225.226 88.112C223.858 86.888 223.102 85.292 222.958 83.324ZM225.046 76.88C226.294 75.704 227.83 75.116 229.654 75.116C231.502 75.116 233.038 75.704 234.262 76.88C235.51 78.032 236.218 79.544 236.386 81.416H222.958C223.126 79.544 223.822 78.032 225.046 76.88ZM249.149 73.892C247.973 74.54 247.085 75.5 246.485 76.772V73.064H244.037V92H246.593V82.352C246.593 80.144 247.157 78.428 248.285 77.204C249.413 75.98 250.973 75.368 252.965 75.368L253.577 75.404V72.92C251.825 72.92 250.349 73.244 249.149 73.892ZM275.561 89.696V73.064H273.113V76.7C272.321 75.476 271.277 74.54 269.981 73.892C268.685 73.244 267.233 72.92 265.625 72.92C263.825 72.92 262.205 73.304 260.765 74.072C259.325 74.84 258.185 75.92 257.345 77.312C256.529 78.704 256.121 80.288 256.121 82.064C256.121 83.84 256.529 85.436 257.345 86.852C258.185 88.244 259.325 89.336 260.765 90.128C262.229 90.896 263.849 91.28 265.625 91.28C267.185 91.28 268.601 90.968 269.873 90.344C271.169 89.72 272.213 88.808 273.005 87.608V90.02C273.005 92.372 272.441 94.1 271.313 95.204C270.185 96.332 268.421 96.896 266.021 96.896C264.581 96.896 263.201 96.668 261.881 96.212C260.585 95.756 259.481 95.12 258.569 94.304L257.273 96.248C258.257 97.16 259.529 97.868 261.089 98.372C262.673 98.9 264.341 99.164 266.093 99.164C269.261 99.164 271.625 98.384 273.185 96.824C274.769 95.288 275.561 92.912 275.561 89.696ZM269.585 88.148C268.481 88.724 267.245 89.012 265.877 89.012C264.509 89.012 263.273 88.724 262.169 88.148C261.089 87.548 260.237 86.72 259.613 85.664C259.013 84.608 258.713 83.408 258.713 82.064C258.713 80.72 259.013 79.52 259.613 78.464C260.237 77.408 261.089 76.592 262.169 76.016C263.273 75.44 264.509 75.152 265.877 75.152C267.269 75.152 268.505 75.452 269.585 76.052C270.689 76.628 271.541 77.444 272.141 78.5C272.765 79.532 273.077 80.72 273.077 82.064C273.077 83.408 272.765 84.608 272.141 85.664C271.541 86.72 270.689 87.548 269.585 88.148ZM285.265 73.064H282.709V92H285.265V73.064ZM282.673 68.384C283.033 68.744 283.477 68.924 284.005 68.924C284.533 68.924 284.977 68.744 285.337 68.384C285.697 68.024 285.877 67.58 285.877 67.052C285.877 66.572 285.697 66.164 285.337 65.828C284.977 65.468 284.533 65.288 284.005 65.288C283.477 65.288 283.033 65.468 282.673 65.828C282.313 66.188 282.133 66.608 282.133 67.088C282.133 67.592 282.313 68.024 282.673 68.384ZM295.185 90.956C296.648 91.772 298.293 92.18 300.116 92.18C301.94 92.18 303.585 91.772 305.048 90.956C306.513 90.116 307.652 88.964 308.469 87.5C309.309 86.036 309.729 84.38 309.729 82.532C309.729 80.684 309.309 79.028 308.469 77.564C307.652 76.1 306.513 74.96 305.048 74.144C303.585 73.328 301.94 72.92 300.116 72.92C298.293 72.92 296.648 73.328 295.185 74.144C293.72 74.96 292.569 76.1 291.728 77.564C290.888 79.028 290.469 80.684 290.469 82.532C290.469 84.38 290.888 86.036 291.728 87.5C292.569 88.964 293.72 90.116 295.185 90.956ZM303.716 89.012C302.66 89.612 301.461 89.912 300.116 89.912C298.772 89.912 297.56 89.612 296.48 89.012C295.424 88.388 294.585 87.512 293.961 86.384C293.361 85.256 293.06 83.972 293.06 82.532C293.06 81.092 293.361 79.808 293.961 78.68C294.585 77.552 295.424 76.688 296.48 76.088C297.56 75.464 298.772 75.152 300.116 75.152C301.461 75.152 302.66 75.464 303.716 76.088C304.797 76.688 305.637 77.552 306.237 78.68C306.836 79.808 307.137 81.092 307.137 82.532C307.137 83.972 306.836 85.256 306.237 86.384C305.637 87.512 304.797 88.388 303.716 89.012Z" fill="white"/>
</svg>
